<?xml version="1.0" encoding="utf-8" ?><svg xmlns="http://www.w3.org/2000/svg" xmlns:xlink="http://www.w3.org/1999/xlink" width="278" height="80" viewBox="0 0 278 80"><path fill="#B70506" transform="scale(0.25 0.25)" d="M280.684 6.777C290.217 6.61409 301.616 7.25116 311.189 7.79092C343.442 9.60937 381.915 13.5641 413.026 22.5027C410.645 32.0564 404.721 44.1552 401.87 55.205C397.372 54.7628 392.386 53.6216 387.878 52.8888C346.206 46.114 303.043 43.759 260.926 46.7522C257.143 51.7887 253.591 58.5579 249.049 62.7607C227.937 82.2978 199.764 95.1846 172.198 102.588C162.379 105.225 153.862 107.704 143.742 107.567C144.894 104.539 145.513 102.627 147.415 99.9384C151.855 97.3358 161.877 94.9885 167.298 93.3379C175.303 90.9419 183.093 87.8762 190.584 84.1732C202.596 78.0993 216.922 67.0338 221.272 53.7929C215.823 54.408 206.281 58.0086 200.814 59.6711C163.845 70.9129 118.777 93.914 100.545 129.896C92.5073 145.58 91.0875 163.833 96.6033 180.572C107.234 212.838 139.771 237.012 169.002 251.75C201.681 268.654 257.765 280.216 294.831 278.247C294.752 289.809 294.819 301.766 294.423 313.29C286.303 313.396 270.126 312.131 261.538 311.569C187.654 306.741 102.86 287.29 46.2032 236.662C25.8176 218.445 9.64723 193.059 8.63457 165.158C6.7515 137.001 18.779 109.676 38.6346 89.3986C101.223 25.4814 195.995 9.82232 280.684 6.777Z"/><path fill="#B70506" transform="scale(0.25 0.25)" d="M865.236 89.8545C866.948 89.734 868.662 89.6462 870.376 89.5914C895.72 88.8593 917.227 97.3745 926.021 122.958C930.78 136.803 930.095 158.281 930.381 173.127C930.692 192.088 931.104 211.046 931.618 230.002C926.069 229.99 902.039 230.39 898.293 229.007C895.816 225.98 895.569 218.968 895.11 214.872C892.498 217.157 889.846 219.548 887.049 221.604C867.049 236.312 840.999 238.919 823.048 219.04C818.239 212.978 815.136 206.322 813.976 198.696C806.827 151.705 857.549 146.195 889.843 140.914C889.187 138.43 888.502 135.857 887.367 133.545C885.127 128.882 881.079 125.339 876.164 123.738C860.466 118.46 844.001 128.24 830.826 134.862C826.477 126.148 821.111 114.923 815.057 107.582C829.319 99.1471 848.815 91.4728 865.236 89.8545ZM858.034 198.848C869.693 204.02 881.972 199.402 889.407 189.487C889.539 186.534 890.138 167.393 889.114 166.223L886.995 166.337C876.205 168.751 860.96 171.274 854.439 181.162C850.067 187.79 851.644 194.341 858.034 198.848Z"/><path fill="#B70506" transform="scale(0.25 0.25)" d="M605.851 89.8658C606.794 89.7525 607.741 89.6836 608.691 89.6593C669.672 87.6657 673.207 130.748 676.687 179.34C677.894 196.196 680.159 213.301 680.716 230.29C670.153 229.662 657.966 229.927 647.143 229.686C646.414 224.424 645.567 220.562 643.71 215.634C641.274 217.382 638.634 219.551 636.237 221.401C616.646 236.522 592.903 237.97 573.643 221.254C566.51 214.042 561.856 204.746 560.356 194.711C553.98 150.515 602.72 146.178 633.287 141.709C623.595 110.929 593.966 122.896 574.026 134.904C568.72 125.68 562.659 116.086 556.987 107.039C574.771 98.0574 585.499 91.9384 605.851 89.8658ZM606.345 199.647C618.622 203.383 628.784 199.854 636.38 189.364C636.417 185.544 635.687 168.934 633.704 166.394L631.766 166.314C622.369 168.525 606.153 171.577 600.75 180.244C598.853 183.325 598.255 187.034 599.088 190.556C600.076 194.663 602.991 197.371 606.345 199.647Z"/><path fill="#B70506" transform="scale(0.25 0.25)" d="M464.148 36.4471C477.819 36.5797 490.486 36.6977 504.179 36.3568C505.965 44.658 508.019 65.8349 509.143 74.9265L519.759 161.397C520.978 170.575 522.802 190.033 525.239 197.952C529.741 199.256 533.181 199.677 537.831 200.328C538.829 207.447 544.969 227.193 544.408 230.66C528.104 234.387 509.543 235.309 496.571 222.772C483.271 209.917 482.241 187.231 480.078 169.914L473.651 116.235L467.162 64.4307C466.174 56.4182 464.323 44.286 464.148 36.4471Z"/><path fill="#B70506" transform="scale(0.25 0.25)" d="M776.961 89.7774C784.328 89.0003 791.788 89.8652 798.568 92.9149C795.868 105.658 794.195 114.339 793.957 127.466C779.522 126.883 770.326 120.932 758.255 135.284C755.522 138.535 750.249 145.868 749.941 149.822C749.143 160.08 750.399 171.294 751.046 181.61L753.968 229.745C747.987 229.806 716.134 230.578 712.728 229.455L712.49 228.319C712.312 212.831 710.956 194.591 710.153 178.862C708.773 150.238 707.197 121.624 705.424 93.0214C715.384 92.7492 729.553 92.5599 739.254 93.5881C740.69 99.663 740.758 112.427 742.947 116.362L743.584 116.538C745.331 115.153 747.183 110.564 748.78 108.317C756.375 97.6358 764.125 92.3619 776.961 89.7774Z"/><path fill="#B70506" transform="scale(0.25 0.25)" d="M439.917 247.636C443.174 248.242 458.497 264.034 461.763 267.39C456.394 271.945 447.99 276.744 441.809 280.129C412.676 296.084 379.345 305.079 346.488 309.5C339.641 310.423 332.743 310.918 325.835 310.982C325.628 300.082 325.295 289.185 324.838 278.292C360.51 277.417 408.079 263.835 439.917 247.636Z"/><path fill="#B70506" transform="scale(0.25 0.25)" d="M393.109 188.961C397.353 193.856 403.652 200.233 407.355 204.807C379.819 238.261 309.21 233.704 270.271 226.628C266.544 225.887 257.03 224.73 255.211 222.039C256.14 219.08 262.791 216.655 265.57 215.352C270.668 215.91 276.942 217.256 282.402 217.943C296.128 219.7 310 220.01 323.79 218.869C348.825 216.668 376.396 208.922 393.109 188.961Z"/><path fill="#B70506" transform="scale(0.25 0.25)" d="M221.325 127.859C238.335 125.281 259.726 135.17 246.91 154.648C241.396 163.028 228.815 167.987 219.168 169.611L218.756 169.667C176.927 175.198 178.354 133.005 221.325 127.859Z"/><path fill="#B70506" transform="scale(0.25 0.25)" d="M337.17 99.548C380.637 96.4234 373.629 136.839 332.974 140.948C325.46 141.656 315.739 140.671 309.538 136.253C302.03 130.862 302.396 121.476 307.628 114.593C315.023 104.866 325.663 101.294 337.17 99.548Z"/><path fill="#010001" transform="scale(0.25 0.25)" d="M833.305 270.684C833.197 266.201 832.062 258.107 834.252 254.917C836.104 253.408 839.971 253.327 841.809 254.949C842.878 260.041 842.668 277.625 842.608 283.733C842.534 291.28 843.017 302.529 842.632 309.786C831.05 308.661 816.966 313.455 809.392 303.762C802.57 295.032 803.468 279.996 812.407 272.883C816.069 269.937 820.766 268.599 825.429 269.175C827.705 269.453 830.373 270.327 832.587 271.03L833.305 270.684ZM825.332 303.399C827.192 303.016 830.426 302.676 831.819 300.351C834.808 295.358 834.301 282.374 831.229 277.668C830.525 276.59 824.651 275.852 822.901 276.004C819.487 277.111 816.557 278.395 815.122 281.865C811.239 291.248 813.792 302.89 825.332 303.399Z"/><path fill="#010001" transform="scale(0.25 0.25)" d="M832.587 271.03L833.305 270.684C835.742 272.227 835.819 271.741 836.761 274.042C836.474 275.945 836.835 275.403 835.48 276.46C833.719 276.087 834.317 276.41 833.093 274.964C832.769 273.367 832.639 272.652 832.587 271.03Z"/><path fill="#010001" transform="scale(0.25 0.25)" d="M677.63 269.617C679.171 269.694 683.416 269.966 683.934 270.948C687.05 276.854 691.199 298.936 692.216 304.769C695.185 292.985 697.308 282.335 700.022 270.701C704.628 269.899 708.378 270.201 712.914 270.77C715.163 282.195 718.022 293.132 720.132 304.228C722.755 293.906 725.297 283.257 727.785 272.87C728.588 269.517 733.215 269.12 734.703 271.074C735 273.51 734.199 276.087 733.606 278.487C730.596 288.626 727.913 300.33 724.596 310.123C721.352 310.254 717.196 310.828 714.569 308.972C711.77 304.848 707.611 281.144 706.558 274.936C703.412 283.979 700.033 299.699 697.208 309.643C693.016 309.915 690.655 309.89 686.457 309.642C684.733 305.45 674.818 271.702 677.63 269.617Z"/><path fill="#010001" transform="scale(0.25 0.25)" d="M524.989 256.67C529.548 256.386 538.777 256.309 542.569 258.654C544.162 259.623 545.288 261.203 545.683 263.026C545.99 264.438 546.034 265.42 545.286 266.542C542.275 267.02 534.299 264.178 529.72 264.329C518.864 264.69 510.365 271.659 510.688 283.261C510.833 288.803 513.18 294.059 517.21 297.863C522.398 302.699 528.217 301.827 534.857 301.603C534.454 296.612 533.369 290.29 535.209 285.841C536.907 284.434 536.701 284.84 539.225 284.629C541.043 284.662 541.956 284.772 543.718 285.038C544.867 286.071 544.975 286.756 545.088 288.389C545.582 295.498 547.23 308.568 537.146 309.598C528.383 310.493 516.77 310.468 509.616 304.633C495.072 292.77 498.86 263.157 517.874 257.828C520.207 257.169 522.603 256.914 524.989 256.67Z"/><path fill="#010001" transform="scale(0.25 0.25)" d="M955.663 253.778C958.439 253.683 959.59 253.507 961.739 255.129C963.873 258.92 962.571 266.775 962.357 271.635C994.094 261.222 987.561 288.199 987.935 309.297C985.439 309.471 980.779 310.002 978.653 308.66C977.956 305.867 978.333 291.469 978.368 287.538C978.75 274.439 973.888 275.807 963.436 277.989C962.022 284.165 962.798 302.648 962.964 309.609C959.93 309.772 956.621 309.617 953.564 309.538C952.457 296.126 953.478 270.415 953.766 256.055C953.793 254.732 954.724 254.359 955.663 253.778Z"/><path fill="#010001" transform="scale(0.25 0.25)" d="M888.427 256.592C894.035 256.335 907.794 256.309 904.171 265.34C899.551 268.084 889.31 260.565 884.25 266.178C879.814 271.1 896.848 280.297 899.945 283.191C911.938 294.402 905.355 309.206 889.354 309.699C887.832 309.703 886.31 309.694 884.789 309.673C875.419 309.525 871.753 308.374 872.309 298.179C879.833 300.693 886.36 305.866 893.996 298.312C898.742 293.617 884.545 285.865 881.828 283.587C878.717 280.978 874.05 277.041 873.891 272.523C873.534 262.366 879.039 257.884 888.427 256.592Z"/><path fill="#010001" transform="scale(0.25 0.25)" d="M1001.83 269.681C1003.62 269.64 1006.4 269.524 1007.88 270.413C1010.46 274.725 1007.86 290.946 1009.02 297.44C1010.4 305.234 1021.32 303.019 1023.21 300.559C1027.28 295.245 1022.08 276.54 1025.63 270.498C1027.81 268.883 1031.44 269.053 1033.49 270.973C1034.49 273.134 1033.94 278.707 1033.87 281.5C1033.99 292.424 1034.54 298.309 1033.62 309.772C1029.34 309.822 1027.96 309.777 1024.14 307.845C998.074 316.844 998.839 300.392 999.141 280.578C999.179 278.039 998.742 272.493 999.832 270.272L1001.83 269.681Z"/><path fill="#010001" transform="scale(0.25 0.25)" d="M770.521 272.955C774.029 276.42 773.546 283.104 773.578 288.043L773.573 309.906C769.777 309.801 767.451 310.2 764.622 307.575C763.931 307.805 763.238 308.027 762.543 308.242C757.429 309.817 750.771 311.02 745.823 308.34C743.315 306.974 741.457 304.661 740.663 301.916C736.672 288.326 755.497 284.718 764.549 282.106L764.953 279.671C765.473 277.746 768.964 274.564 770.521 272.955ZM764.483 289.486C760.419 289.268 754.137 291.024 751.015 293.735C748.697 295.747 747.639 299.33 750.103 301.605C753.989 305.194 760.574 303.042 764.701 301.414C764.308 299.771 764.283 291.372 764.483 289.486Z"/><path fill="#010001" transform="scale(0.25 0.25)" d="M770.521 272.955C774.029 276.42 773.546 283.104 773.578 288.043L773.573 309.906C769.777 309.801 767.451 310.2 764.622 307.575C764.832 307.02 765.399 306.602 765.983 304.861C765.875 303.157 765.649 302.865 764.701 301.414C764.308 299.771 764.283 291.372 764.483 289.486L764.976 289.664C765.89 288.245 764.977 283.821 764.549 282.106L764.953 279.671C765.473 277.746 768.964 274.564 770.521 272.955Z"/><path fill="#010001" transform="scale(0.25 0.25)" d="M642.515 271.7C648.391 269.256 660.354 267.918 664.999 272.42C668.543 275.856 669.839 306.38 667.12 309.1C664.607 309.842 661.262 309.485 658.584 309.354C658.407 303.813 658.979 294.831 659.029 288.899C658.785 284.81 658.629 281.698 657.9 277.657C652.598 277.023 648.898 277.357 643.557 277.624C642.263 287.736 642.618 298.975 642.796 309.228C639.875 309.637 636.617 309.507 633.645 309.474C633.534 297.53 633.12 280.995 633.584 269.548C637.658 269.417 638.872 269.869 642.515 271.7Z"/><path fill="#010001" transform="scale(0.25 0.25)" d="M589.799 269.591L595.539 270.322C595.218 276.164 594.457 295.687 596.627 300.632C598.921 303.36 606.899 302.997 609.761 301.371C612.05 298.529 611.29 275.445 611.268 270.093C615.031 269.899 618.223 268.922 620.74 271.899C621.534 274.229 620.929 277.667 620.664 280.203C620.366 289.748 620.831 299.724 620.612 309.443C618.393 309.544 612.177 308.461 612.046 308.477C588.845 311.368 585.137 310.639 586.474 286.186C586.751 281.11 583.993 271.02 589.799 269.591Z"/><path fill="#010001" transform="scale(0.25 0.25)" d="M929.759 269.158C934.697 269.151 940.903 269.208 944.899 272.249C945.651 273.891 945.64 274.268 945.508 276.077C942.724 279.862 934.887 274.538 929.045 276.594C919.666 279.895 919.112 298.359 928.163 302.357C933.277 304.615 938.37 302.117 943.427 300.391C945.073 301.421 945.994 303.665 945.394 305.462C944.046 309.495 937.419 309.529 934.144 309.733C928.792 310.152 924.036 309.779 919.567 306.522C908.947 298.781 910.971 279.352 921.198 272.171C924.139 270.106 926.224 269.614 929.759 269.158Z"/><path fill="#010001" transform="scale(0.25 0.25)" d="M1047.29 254.375C1049.92 254.153 1053.28 254.323 1055.96 254.386C1056.82 261.913 1057.21 302.992 1055.74 309.511C1053.23 309.631 1048.63 310.306 1046.87 308.559C1046.23 303.055 1045.83 257.297 1047.29 254.375Z"/><path fill="#010001" transform="scale(0.25 0.25)" d="M791.294 253.922C793.265 253.962 793.11 253.628 794.272 254.658C794.823 260.383 794.411 269.252 794.385 275.296L794.453 309.636L787.712 309.745C786.728 309.763 786.603 309.704 785.705 309.291C784.725 305.991 785.463 291.161 785.443 287.003C785.394 276.465 785.907 265.692 785.067 255.15C786.887 254.509 789.34 254.222 791.294 253.922Z"/><path fill="#010001" transform="scale(0.25 0.25)" d="M557.649 268.751C561.653 269.121 562.357 269.48 565.134 272.294C569.483 270.868 576.386 267.632 579.628 271.593C580.286 273.504 579.647 275.984 579.3 278.052C575.069 278.173 570.839 278.35 566.613 278.584C566.135 283.695 566.238 289.42 566.22 294.601C566.191 299.573 566.132 304.546 566.043 309.517C563.387 309.645 560.351 309.581 557.663 309.586C556.962 300.518 556.823 277.82 557.649 268.751Z"/><path fill="#010001" transform="scale(0.25 0.25)" d="M1072.3 273.833C1085.33 263.167 1104.53 271.427 1103.27 288.871C1103.17 290.184 1103.16 290.35 1102.31 291.301C1100.45 291.064 1096.52 291.329 1095.15 290.721C1095.88 288.368 1096.17 287.629 1095.25 285.296C1095.86 276.638 1084.13 273.066 1076.83 279.712C1074.94 277.279 1075 276.302 1072.3 273.833Z"/><path fill="#010001" transform="scale(0.25 0.25)" d="M1069.22 301.636C1071.08 301.368 1075.19 298.794 1076.99 297.767C1086 309.696 1095.79 299.148 1101.07 301.078C1102.3 303.855 1099.05 308.148 1096.42 308.906C1087.52 311.472 1074.26 310.466 1069.22 301.636Z"/><path fill="#010001" transform="scale(0.25 0.25)" d="M1069.22 301.636C1063.56 292.408 1065.1 281.654 1072.3 273.833C1075 276.302 1074.94 277.279 1076.83 279.712L1074.48 285.062C1070.36 286.48 1070.55 293.117 1073.58 294.442L1074.92 293.89L1076.12 295.777C1076.42 296.38 1076.84 297.131 1076.99 297.767C1075.19 298.794 1071.08 301.368 1069.22 301.636Z"/><path fill="#010001" transform="scale(0.25 0.25)" d="M764.953 279.671C760.577 270.377 746.257 280.877 742.378 278.792C739.877 265.559 764.37 268.987 770.521 272.955C768.964 274.564 765.473 277.746 764.953 279.671Z"/><path fill="#010001" transform="scale(0.25 0.25)" d="M1076.12 295.777L1074.92 293.89L1073.58 294.442C1070.55 293.117 1070.36 286.48 1074.48 285.062C1076.98 286.559 1091.71 285.712 1095.25 285.296C1096.17 287.629 1095.88 288.368 1095.15 290.721C1096.52 291.329 1100.45 291.064 1102.31 291.301C1096.87 292.08 1078.76 290.871 1076.12 292.503C1075.54 293.832 1076.12 294.489 1076.12 295.777Z"/></svg>