<svg xmlns="http://www.w3.org/2000/svg" version="1.1" xmlns:xlink="http://www.w3.org/1999/xlink" width="387" height="387"><svg xmlns="http://www.w3.org/2000/svg" version="1.1" xmlns:xlink="http://www.w3.org/1999/xlink" width="387" height="387"><svg xmlns="http://www.w3.org/2000/svg" xmlns:xlink="http://www.w3.org/1999/xlink" width="387" height="387" viewBox="0 0 387 387"><path fill="#B80403" transform="matrix(0.801242 0 0 0.955555 0 -3.05176e-05)" d="M294.373 41.1106C306.021 40.5205 320.69 41.4663 332.29 42.1847C365.837 44.2621 399.604 47.961 432.125 56.6922C429.059 68.1463 423.67 79.2748 420.943 90.1836C386.462 84.2037 352.427 80.007 317.334 80.4292C304.684 80.5814 291.365 80.3228 278.778 81.4545C274.949 86.2811 272.035 92.1422 267.537 96.5887C251.431 112.509 230.328 123.507 209.309 131.49C201.896 134.372 194.413 136.201 186.808 138.469C178.518 140.941 170.561 142.817 161.863 143.075C161.211 143.095 161.005 142.85 160.627 142.414C160.42 140.585 161.919 138.358 162.772 136.721C163.554 135.222 165.189 134.35 166.738 133.696C171.584 131.672 176.898 130.56 181.883 128.997C200.291 123.224 218.256 115.459 231.255 100.681C234.346 97.1663 236.227 92.4437 238.538 88.3613C236.022 89.4044 232.198 90.2025 229.425 91.0274C191.875 102.201 151.997 118.538 126.933 150.024C123.716 154.065 120.561 158.266 118.073 162.755C109.196 178.539 106.998 197.216 111.966 214.63C118.245 236.4 134.541 253.983 151.92 267.762C161.665 275.489 172.275 281.48 183.127 287.487C214.205 303.706 254.195 312.499 289.004 315.059C294.878 315.491 307.304 316.189 312.945 315.411C312.709 321.002 312.833 326.724 312.737 332.333C312.627 338.71 312.416 345.161 312.507 351.534C308.591 350.847 297.664 350.743 292.969 350.45C278.845 349.67 264.743 348.512 250.68 346.979C186.735 340.181 109.633 318.133 61.7082 273.513C57.3336 269.439 52.8439 265.113 48.9482 260.588C34.7819 244.133 24.6516 223.565 23.9079 201.612C23.676 194.768 23.7115 187.579 24.7396 180.797C27.6227 161.777 38.0169 141.583 51.1094 127.571C82.3046 94.1844 123.887 72.2323 167.425 59.5765C177.423 56.7295 187.529 54.2802 197.722 52.2342C210.489 49.5578 222.001 47.6889 234.923 46.0098C254.646 43.3843 274.487 41.7492 294.373 41.1106Z"></path><path fill="#B80403" transform="matrix(0.801242 0 0 0.955555 0 -3.05176e-05)" d="M458.573 284.977C462.682 284.688 477.351 301.365 481.573 304.663C459.507 322.137 425.21 335.095 398.047 341.426C386.722 344.066 376.357 345.686 364.985 347.448C361.618 347.842 358.06 348.347 354.688 348.551C351.069 348.769 347.574 348.755 343.935 349.071C343.575 346.202 343.555 340.445 343.473 337.442L342.889 315.448C348.149 315.684 358.42 314.384 363.739 313.756C391.266 310.504 418.694 301.845 444.282 291.395C449.088 289.433 453.776 287.03 458.573 284.977Z"></path><path fill="#B80403" transform="matrix(0.801242 0 0 0.955555 0 -3.05176e-05)" d="M411.872 225.14C413.977 226.635 424.358 238.803 426.538 241.481C396.574 276.298 328.511 269.913 287.808 263.647C284.763 263.087 273.662 261.544 272.683 258.631C272.931 256.632 280.914 252.28 282.774 252.358C289.518 252.637 296.323 254.378 303.14 255.024C336.665 258.202 375.428 255.626 402.844 233.935C406.105 231.355 409.019 228.175 411.872 225.14Z"></path><path fill="#B80403" transform="matrix(0.801242 0 0 0.955555 0 -3.05176e-05)" d="M239.413 163.347C249.487 162.169 265.277 165.165 267.943 176.756C269.899 185.257 262.518 194.431 255.776 198.668C249.501 202.612 241.718 204.916 234.402 205.981C225.771 206.5 217.743 206.494 210.548 200.868C202.724 194.751 203.874 184.348 209.69 177.218C217.118 168.111 228.162 164.621 239.413 163.347Z"></path><path fill="#B80403" transform="matrix(0.801242 0 0 0.955555 0 -3.05176e-05)" d="M354.891 135.092C363.041 134.292 372.996 135.059 379.77 139.945C387.521 145.535 386.709 155.358 381.258 162.293C374.2 171.272 363.517 175.068 352.597 176.576C344.157 177.547 333.602 176.505 326.761 171.35C319.397 165.801 321.055 155.52 326.254 149.148C333.324 140.481 344.139 136.321 354.891 135.092Z"></path></svg></svg><style>@media (prefers-color-scheme: light) { :root { filter: none; } }
@media (prefers-color-scheme: dark) { :root { filter: none; } }
</style></svg>